<?xml version="1.0" standalone="no"?>
<!DOCTYPE svg PUBLIC "-//W3C//DTD SVG 1.1//EN" "http://www.w3.org/Graphics/SVG/1.1/DTD/svg11.dtd" >
<svg xmlns="http://www.w3.org/2000/svg">
<metadata>
This is a custom SVG webfont generated by Font Squirrel.
Copyright   : Copyright c 199295 ElseWare  All rights reserved
</metadata>
<defs>
<font id="UniversLightCondensedRegular" horiz-adv-x="834" >
<font-face units-per-em="2048" ascent="1638" descent="-410" />
<missing-glyph horiz-adv-x="455" />
<glyph unicode=" "  horiz-adv-x="455" />
<glyph unicode="&#x09;" horiz-adv-x="455" />
<glyph unicode="&#xa0;" horiz-adv-x="455" />
<glyph unicode="!" horiz-adv-x="607" d="M236 0v158h160v-158h-160zM250 1417h116l-18 -1120h-81z" />
<glyph unicode="&#x22;" d="M159 1410h149l-30 -471h-89zM525 1410h149l-30 -471h-89z" />
<glyph unicode="#" d="M-6 432l25 80h185l117 380h-186l25 80h185l139 452h93l-139 -452h153l139 452h93l-139 -452h166l-25 -80h-165l-117 -380h166l-25 -80h-166l-159 -518h-93l159 518h-153l-159 -518h-93l159 518h-185zM296 512h154l117 380h-154z" />
<glyph unicode="$" d="M150 475l2 47h115q-8 -126 31 -181.5t135 -55.5q84 0 124.5 42.5t40.5 130.5q0 65 -47 114q-46 49 -169 114q-116 61 -165 128q-49 66 -49 161q0 118 67 177q52 45 142 55v243h110v-242q107 -11 155 -67q60 -70 60 -239h-117q0 114 -38.5 167t-122.5 53q-71 0 -105 -37 t-34 -113q0 -64 43 -111q42 -46 156 -107q124 -66 177 -131q52 -65 52 -153q0 -143 -66 -207q-52 -49 -160 -62v-269h-110v270q-115 12 -170.5 75t-56.5 198z" />
<glyph unicode="%" horiz-adv-x="1365" d="M129 872v306q0 128 46 187t146 59t146.5 -59t46.5 -187v-306q0 -132 -46.5 -193t-146.5 -61t-146 61t-46 193zM218 871q0 -98 22.5 -137t80.5 -39t81 39t23 137v306q0 95 -23 132.5t-81 37.5t-80.5 -37.5t-22.5 -132.5v-306zM356 -70l558 1522h95l-558 -1522h-95z M851 240v306q0 128 46 187t146 59t146.5 -59t46.5 -187v-306q0 -132 -46.5 -193t-146.5 -61t-146 61t-46 193zM940 239q0 -98 22.5 -137t80.5 -39t81 39t23 137v306q0 95 -23 132.5t-81 37.5t-80.5 -37.5t-22.5 -132.5v-306z" />
<glyph unicode="&#x26;" horiz-adv-x="1062" d="M91 363q0 112 80 237q65 103 177 201q-68 104 -106 194q-40 96 -40 166q0 119 75.5 194.5t194.5 75.5t194.5 -69.5t75.5 -179.5q0 -126 -75 -235q-63 -92 -171 -162l291 -435q17 59 29 139q23 158 12 328h55h55q11 -174 -19 -347q-23 -133 -63 -224l165 -246h-68h-68 l-95 141q-51 -57 -125 -100q-108 -62 -221 -62q-155 0 -254 107.5t-99 276.5zM199 362q0 -126 69 -206q68 -80 176 -80q88 0 173 49q71 42 115 103l-328 491q-92 -82 -142 -160q-63 -98 -63 -197zM316 1151q0 -50 32 -122q31 -68 92 -161q86 55 132 122q56 82 56 189 q0 67 -43.5 109.5t-112.5 42.5t-113 -51q-43 -50 -43 -129z" />
<glyph unicode="'" horiz-adv-x="455" d="M153 1410h149l-30 -471h-89z" />
<glyph unicode="(" horiz-adv-x="455" d="M119 639q0 155 32.5 380.5t79.5 397.5h80q-32 -158 -54.5 -383.5t-22.5 -394.5q0 -171 22.5 -396.5t54.5 -381.5h-80q-47 173 -80 399q-32 225 -32 379z" />
<glyph unicode=")" horiz-adv-x="455" d="M155 -139q32 155 54 381t22 397q0 173 -22 398.5t-54 379.5h80q47 -172 79 -398q32 -225 32 -380q0 -156 -32 -381.5t-79 -396.5h-80z" />
<glyph unicode="*" d="M137 1110v92l231 -21l-135 189l80 48l99 -210l98 211l81 -46l-133 -192l231 21v-92l-231 21l135 -189l-80 -48l-99 210l-98 -211l-81 46l133 192z" />
<glyph unicode="+" horiz-adv-x="1365" d="M309 527v88h329v329h88v-329h329v-88h-329v-329h-88v329h-329z" />
<glyph unicode="," horiz-adv-x="455" d="M107 -269l96 426h144l-147 -426h-93z" />
<glyph unicode="-" horiz-adv-x="455" d="M56 470v81h342v-81h-342z" />
<glyph unicode="." horiz-adv-x="455" d="M152 0v158h160v-158h-160z" />
<glyph unicode="/" horiz-adv-x="455" d="M21 -85l322 1495h92l-322 -1495h-92z" />
<glyph unicode="0" d="M100 335v755q0 177 76.5 259t241.5 82t241.5 -82t76.5 -259v-755q0 -185 -76.5 -270.5t-241.5 -85.5t-241.5 85.5t-76.5 270.5zM214 349q0 -153 45 -213.5t159 -60.5t159 60.5t45 213.5v726q0 146 -45 203t-159 57t-159 -57t-45 -203v-726z" />
<glyph unicode="1" d="M193 1069v135q73 55 122 100t111 113h110v-1417h-58h-58v1277q-37 -43 -71 -75q-62 -60 -156 -133z" />
<glyph unicode="2" d="M96 0v69v70q255 299 393 557t138 436q0 95 -52.5 149t-146.5 54q-116 0 -163 -75t-36 -245h-114q-14 220 59 318t252 98q149 0 230 -79t81 -224q0 -204 -136 -457q-130 -245 -413 -578h562v-93h-654z" />
<glyph unicode="3" d="M112 386h114q0 -177 42.5 -244t154.5 -67q110 0 153.5 57t43.5 201v160q0 107 -56.5 160.5t-168.5 53.5h-97v96h107q93 0 148 51.5t55 139.5v156q0 89 -49.5 137t-141.5 48q-109 0 -150 -60.5t-41 -221.5h-114q0 200 71.5 289t233.5 89q146 0 225.5 -77t79.5 -219v-136 q0 -129 -73 -189q-38 -31 -97 -45q68 -22 108 -62q74 -76 74 -240v-160q0 -169 -74.5 -246.5t-236.5 -77.5q-165 0 -238 95.5t-73 311.5z" />
<glyph unicode="4" d="M62 381v46v46l413 937h83h84v-936h145v-93h-145v-381h-116v381h-464zM172 474h354v828z" />
<glyph unicode="5" d="M148 380h114q-10 -162 35 -233.5t157 -71.5t152.5 58t40.5 219v183q0 155 -39 211.5t-146 56.5q-87 0 -132 -43t-55 -137h-121l24 787h522v-93h-415l-16 -516q25 30 43 46q57 47 179 47q140 0 205 -87t65 -275v-183q0 -204 -69 -287t-238 -83q-172 0 -245.5 96t-60.5 305 z" />
<glyph unicode="6" d="M121 409v599q0 254 64 339q64 84 257 84q179 0 244 -78.5t65 -294.5h-114q0 161 -41 219t-154 58q-124 0 -165.5 -55.5t-41.5 -221.5v-272q94 102 219 102q154 0 225.5 -73t71.5 -232v-290q0 -163 -74 -238.5t-235 -75.5q-180 0 -250.5 94.5t-70.5 335.5zM237 300 q0 -112 51 -170t149 -58q112 0 156 50t44 178v272q0 123 -44 171.5t-156 48.5q-98 0 -149 -56t-51 -164v-272z" />
<glyph unicode="7" d="M132 1315v95h589v-51v-51l-368 -1308h-121l382 1308l2 7h-484z" />
<glyph unicode="8" d="M131 286v191q0 162 70 231q34 33 89 51q-46 17 -78 42q-66 57 -66 193v165q0 136 72 204t217 68t217 -68t72 -204v-165q0 -136 -67 -194q-30 -26 -78 -40q58 -20 91 -52q70 -69 70 -231v-191q0 -154 -76 -230.5t-229 -76.5q-152 0 -228 76.5t-76 230.5zM245 307 q0 -125 43.5 -178.5t146.5 -53.5t147 53.5t44 178.5v175q0 121 -44 173t-147 52t-146.5 -52t-43.5 -173v-175zM260 997q0 -105 41 -150q40 -44 134 -44t134.5 44.5t40.5 149.5v151q0 101 -40.5 144t-134.5 43t-134.5 -43t-40.5 -144v-151z" />
<glyph unicode="9" d="M117 352h114q0 -161 41 -219t155 -58q125 0 167 55.5t42 221.5v272q-96 -102 -221 -102q-155 0 -226.5 73t-71.5 232v290q0 163 74.5 238.5t236.5 75.5q180 0 251 -94.5t71 -335.5v-599q0 -254 -65 -339q-64 -84 -258 -84q-180 0 -245 78.5t-65 294.5zM231 838 q0 -123 44.5 -171.5t157.5 -48.5q98 0 149.5 56t51.5 164v272q0 112 -51.5 170t-149.5 58q-113 0 -157.5 -50t-44.5 -178v-272z" />
<glyph unicode=":" horiz-adv-x="455" d="M154 0v158h160v-158h-160zM154 824v158h160v-158h-160z" />
<glyph unicode=";" horiz-adv-x="455" d="M89 -269l96 427h144l-147 -427h-93zM169 824v158h160v-158h-160z" />
<glyph unicode="&#x3c;" horiz-adv-x="1348" d="M212 527v44v44l925 443v-98l-813 -389l813 -389v-98z" />
<glyph unicode="=" horiz-adv-x="1365" d="M309 438v89h746v-89h-746zM309 650v89h746v-89h-746z" />
<glyph unicode="&#x3e;" horiz-adv-x="1348" d="M212 84v98l813 389l-813 389v98l925 -443v-44v-44z" />
<glyph unicode="?" d="M165 1072q0 201 60.5 280t213.5 79q142 0 207.5 -68.5t65.5 -217.5q0 -108 -36 -210t-116 -220q-52 -77 -67 -126t-15 -143v-155h-112v155q0 103 20.5 168.5t83.5 160.5q80 123 103 190t23 180q0 102 -36 144q-35 42 -121 42q-88 0 -123 -57t-35 -202h-116zM342 0v158 h160v-158h-160z" />
<glyph unicode="@" horiz-adv-x="1365" d="M172 219v673q1 296 117.5 417.5t401.5 121.5t402 -120t116 -413v-518q0 -135 -41.5 -190.5t-143.5 -55.5q-100 0 -141 143q-13 -30 -30 -54q-63 -89 -180 -89q-116 0 -178.5 69.5t-62.5 197.5v349q0 124 63 191t179 67q104 1 164 -72v51h116v-609q0 -79 17.5 -111.5 t60.5 -32.5q38 0 53.5 33t15.5 113v518q0 241 -92 339.5t-318 98.5t-318.5 -99t-92.5 -341v-673q0 -210 87.5 -296t301.5 -86q75 0 156.5 16.5t124.5 40.5v-93q-45 -25 -128.5 -42t-159.5 -17q-270 0 -380 106.5t-110 366.5zM548 401q0 -90 35.5 -133.5t109.5 -43.5 t109.5 61.5t35.5 188.5v194q0 127 -35.5 188.5t-109.5 61.5t-109.5 -41t-35.5 -127v-349z" />
<glyph unicode="A" horiz-adv-x="948" d="M44 0l366 1410h64h64l366 -1410h-60h-60l-97 394h-428l-95 -394h-60h-60zM285 494h378l-190 770z" />
<glyph unicode="B" horiz-adv-x="948" d="M149 0v1410h58h250q223 0 297 -71t74 -283q0 -200 -74 -267q-40 -36 -124 -52q100 -17 144 -68q61 -73 61 -294q0 -225 -70.5 -300t-282.5 -75h-275h-58zM265 100h217q142 0 189.5 59t47.5 235q0 173 -57.5 231t-229.5 58h-167v-583zM265 783h192q153 0 204 53t51 213 q0 157 -51 209t-204 52h-192v-527z" />
<glyph unicode="C" horiz-adv-x="872" d="M137 372v682q0 181 87.5 279t248.5 98q159 0 232 -89.5t73 -283.5h-116q0 145 -44.5 209t-144.5 64q-121 0 -170.5 -62.5t-49.5 -215.5v-682q0 -155 51.5 -223.5t168.5 -68.5q104 0 146.5 68t42.5 234h116q0 -213 -71.5 -307.5t-233.5 -94.5q-168 0 -252 98t-84 295z" />
<glyph unicode="D" horiz-adv-x="986" d="M148 0v1410h58h224q239 0 333 -83.5t94 -296.5v-634q0 -222 -94 -309t-333 -87h-224h-58zM264 100h166q177 0 244 63.5t67 231.5v634q0 160 -67 220.5t-244 60.5h-166v-1210z" />
<glyph unicode="E" horiz-adv-x="796" d="M153 0v1410h563v-50v-50h-447v-536h424v-50v-50h-424v-574h459v-50v-50h-575z" />
<glyph unicode="F" horiz-adv-x="721" d="M144 0v1410h551v-50v-50h-435v-536h418v-50v-50h-418v-674h-58h-58z" />
<glyph unicode="G" horiz-adv-x="986" d="M143 372v682q0 181 95.5 279t272.5 98q170 0 251.5 -91.5t81.5 -281.5h-116q0 131 -56.5 202t-160.5 71q-128 0 -190 -68t-62 -210v-682q0 -149 64 -220.5t198 -71.5q118 0 207 36v490h-199v100h315v-656q-132 -70 -348 -70q-169 0 -261 102t-92 291z" />
<glyph unicode="H" horiz-adv-x="986" d="M141 0v1410h58h58v-636h468v636h58h58v-1410h-58h-58v674h-468v-674h-58h-58z" />
<glyph unicode="I" horiz-adv-x="417" d="M152 0v1410h58h58v-1410h-58h-58z" />
<glyph unicode="J" horiz-adv-x="796" d="M53 360h116q0 -156 41 -219.5t142 -63.5q93 0 145.5 50t52.5 138v1145h58h58v-1145q0 -132 -83 -209t-224 -77q-168 0 -237 85.5t-69 295.5z" />
<glyph unicode="K" horiz-adv-x="910" d="M145 0v1410h58h58v-1410h-58h-58zM276 761l442 649h64h64l-459 -645l488 -765h-68h-69z" />
<glyph unicode="L" horiz-adv-x="721" d="M145 0v1410h58h58v-1310h431v-50v-50h-547z" />
<glyph unicode="M" horiz-adv-x="1327" d="M155 0v1410h101h101l313 -1235l295 1235h101h101v-1410h-58h-58v1322l-315 -1322h-75h-75l-315 1291v-1291h-58h-58z" />
<glyph unicode="N" horiz-adv-x="1062" d="M141 0v1410h81h81l488 -1202v1202h60h60v-1410h-80h-80l-490 1207v-1207h-60h-60z" />
<glyph unicode="O" horiz-adv-x="986" d="M137 372v682q0 181 92 279t262 98t262.5 -98t92.5 -279v-682q0 -189 -92.5 -291t-262.5 -102t-262 102t-92 291zM253 371q0 -149 58.5 -220.5t179.5 -71.5q122 0 180.5 71.5t58.5 220.5v682q0 142 -58.5 210t-180.5 68q-121 0 -179.5 -68t-58.5 -210v-682z" />
<glyph unicode="P" horiz-adv-x="872" d="M155 0v1410h58h230q225 0 300 -77.5t75 -310.5q0 -238 -75 -317.5t-300 -79.5h-172v-625h-58h-58zM271 725h172q155 0 207 59t52 236q0 174 -52 232t-207 58h-172v-585z" />
<glyph unicode="Q" horiz-adv-x="986" d="M122 372v682q0 181 92 279t262 98t262.5 -88.5t92.5 -252.5v-754q0 -145 -91 -246l209 8v-98h-237q-69 0 -118 -10q-34 -8 -78 -10l-40 -1q-170 0 -262 102t-92 291zM238 371q0 -149 58.5 -220.5t179.5 -71.5q122 0 180.5 63t58.5 193v754q0 123 -58.5 182.5t-180.5 59.5 q-121 0 -179.5 -68t-58.5 -210v-682z" />
<glyph unicode="R" horiz-adv-x="948" d="M154 0v1410h58h236q230 0 307 -75t77 -299q0 -185 -83 -255q-47 -40 -140 -58q100 -9 150 -59q61 -59 61 -186v-8v-55q0 -93 5 -181q7 -112 24 -234h-59h-59q-15 122 -21 234q-3 65 -3 134q0 50 2 102v11q1 99 -53 145q-56 50 -183 50h-203v-676h-58h-58zM270 776h178 q161 0 214.5 54t53.5 216q0 158 -53.5 211t-214.5 53h-178v-534z" />
<glyph unicode="S" horiz-adv-x="872" d="M101 381h110q0 -160 52.5 -231t170.5 -71q102 0 159 65t57 180q0 76 -43 136q-42 60 -196 200q-166 151 -225 243q-59 91 -59 197q0 156 82 243.5t228 87.5q171 0 247 -87.5t76 -285.5h-116q0 142 -49.5 207.5t-157.5 65.5q-91 0 -142.5 -51t-51.5 -142t46 -162 q45 -70 189 -201q177 -161 233 -244q55 -83 55 -185q0 -172 -90 -269.5t-249 -97.5q-173 0 -249.5 94.5t-76.5 307.5z" />
<glyph unicode="T" d="M31 1310v50v50h775v-50v-50h-330v-1310h-58h-58v1310h-329z" />
<glyph unicode="U" horiz-adv-x="986" d="M144 295v1115h58h58v-1095q0 -120 58 -178t178 -58t177.5 58t57.5 178v1095h57h58v-1115q0 -152 -91 -234t-260 -82t-260 82t-91 234z" />
<glyph unicode="V" horiz-adv-x="910" d="M40 1410h59h60l305 -1274l283 1274h60h60l-334 -1410h-80h-80z" />
<glyph unicode="W" horiz-adv-x="1403" d="M50 1410h64h65l214 -1280l221 1280h88h88l232 -1339l204 1339h58h59l-236 -1410h-88h-88l-240 1280l-216 -1280h-84h-84z" />
<glyph unicode="X" horiz-adv-x="948" d="M30 0l383 744l-337 666h65h65l272 -539l277 539h62h63l-341 -662l378 -748h-65h-65l-313 621l-319 -621h-62h-63z" />
<glyph unicode="Y" horiz-adv-x="910" d="M55 1410h64h64l281 -678l291 678h58h59l-350 -788v-622h-58h-58v625z" />
<glyph unicode="Z" horiz-adv-x="796" d="M45 0v51v51l597 1206l1 2h-598v50v50h727v-51v-51l-597 -1206l-1 -2h598v-50v-50h-727z" />
<glyph unicode="[" horiz-adv-x="455" d="M110 -202v1612h295v-63h-182v-1480h182v-69h-295z" />
<glyph unicode="\" horiz-adv-x="455" d="M21 1410h92l322 -1495h-92z" />
<glyph unicode="]" horiz-adv-x="455" d="M58 -133h182v1480h-182v63h295v-1612h-295v69z" />
<glyph unicode="^" horiz-adv-x="1024" d="M99 993v62q141 111 216 212q76 101 143 269h53h53q66 -169 142 -270q75 -101 218 -211v-62q-203 114 -319 228q-47 46 -93 106q-48 -60 -95 -107q-116 -114 -318 -227z" />
<glyph unicode="_" horiz-adv-x="1024" d="M0 -407h1024v-105h-1024v105z" />
<glyph unicode="`" d="M226 1403h130l123 -300h-98z" />
<glyph unicode="a" horiz-adv-x="759" d="M66 273v17q0 163 94.5 230t326.5 67h37v143q0 84 -44 133.5t-118 49.5q-90 0 -126.5 -48t-36.5 -166h-116q0 164 64 234t214 70q137 0 208 -65.5t71 -191.5v-746h-116v75q-73 -96 -212 -96q-125 0 -185.5 72t-60.5 222zM182 273q0 -104 39 -154t121 -50q96 0 138.5 66 t43.5 209v153h-62q-154 0 -217 -46.5t-63 -160.5v-17z" />
<glyph unicode="b" horiz-adv-x="796" d="M119 0v1410h58h58v-503q75 96 206 96q121 0 186.5 -78.5t65.5 -223.5v-409q0 -150 -65.5 -231.5t-186.5 -81.5q-131 0 -206 95v-74h-116zM235 373q0 -155 42 -230q42 -74 129 -74t129 54.5t42 168.5v409q0 108 -42 160t-129 52t-129 -74.5t-42 -229.5v-236z" />
<glyph unicode="c" horiz-adv-x="683" d="M79 292v409q0 145 68.5 223.5t194.5 78.5q137 0 200.5 -73.5t63.5 -232.5h-115q0 114 -35 165t-114 51q-75 0 -111.5 -52t-36.5 -160v-409q0 -109 38 -166t110 -57q82 0 115.5 53t33.5 182h115q0 -172 -62 -248.5t-202 -76.5q-132 0 -197.5 78t-65.5 235z" />
<glyph unicode="d" horiz-adv-x="796" d="M106 292v409q0 145 67 223.5t190 78.5q129 0 201 -95v502h58h58v-1410h-58h-58v74q-72 -95 -201 -95q-123 0 -190 81.5t-67 231.5zM222 292q0 -114 42 -168.5t129 -54.5t129 74.5t42 229.5v236q0 155 -42 229.5t-129 74.5t-129 -52t-42 -160v-409z" />
<glyph unicode="e" horiz-adv-x="759" d="M95 292v409q0 145 74.5 223.5t212.5 78.5t212.5 -78.5t74.5 -223.5v-246h-459v-163q0 -114 42 -168.5t129 -54.5q93 0 133 52t40 174h115q0 -167 -67.5 -241.5t-219.5 -74.5q-138 0 -212.5 81.5t-74.5 231.5zM210 545h344v156q0 108 -42 160t-130 52t-130 -52t-42 -160 v-156z" />
<glyph unicode="f" horiz-adv-x="493" d="M33 897v85h155v238q0 114 45 159t159 45l68 -3v-91q-26 5 -56 4q-59 0 -79.5 -23.5t-20.5 -90.5v-238h156v-85h-156v-897h-58h-58v897h-155z" />
<glyph unicode="g" horiz-adv-x="796" d="M106 292v409q0 145 69.5 223.5t198.5 78.5q122 0 190 -72v51h116v-1096q0 -134 -73 -204t-214 -70q-127 0 -195.5 66.5t-68.5 189.5h116q0 -80 34 -123t96 -43q98 0 143.5 44t45.5 140v168q-68 -75 -188 -75h-3q-128 0 -197.5 81.5t-69.5 231.5zM222 292 q0 -114 42 -168.5t129 -54.5q80 0 122 74.5t49 229.5v236q0 155 -42 229.5t-129 74.5t-129 -52t-42 -160v-409z" />
<glyph unicode="h" horiz-adv-x="796" d="M110 0v1410h58h58v-500l1 1q73 92 213 92q119 0 181 -73t62 -214v-716h-58h-58v713q0 94 -40.5 146.5t-112.5 52.5q-98 0 -143 -65t-45 -206v-641h-58h-58z" />
<glyph unicode="i" horiz-adv-x="341" d="M109 1269v141h128v-141h-128zM115 0v982h58h58v-982h-58h-58z" />
<glyph unicode="j" horiz-adv-x="341" d="M4 -273h32q45 0 62.5 18t17.5 64v1173h58h58v-1184q0 -85 -39.5 -123t-129.5 -38h-59v90zM110 1269v141h128v-141h-128z" />
<glyph unicode="k" horiz-adv-x="759" d="M113 0v1410h58h58v-1410h-58h-58zM248 560l328 422h64h65l-329 -426l360 -556h-69h-69z" />
<glyph unicode="l" horiz-adv-x="341" d="M118 0v1410h58h58v-1410h-58h-58z" />
<glyph unicode="m" horiz-adv-x="1252" d="M108 0v982h59h59v-68q75 89 212 89q110 0 177 -79q19 -22 33 -50q15 25 32 45q73 84 214 84q120 0 182.5 -73.5t62.5 -215.5v-714h-58h-58v713q0 94 -40.5 146.5t-112.5 52.5q-98 0 -143 -57t-45 -181v-674h-58h-58v728q0 86 -41 135t-113 49q-98 0 -143 -65t-45 -206 v-641h-58h-58z" />
<glyph unicode="n" horiz-adv-x="796" d="M112 0v982h55h55v-80l7 9q73 92 213 92q119 0 181 -73t62 -214v-716h-58h-58v713q0 94 -40.5 146.5t-112.5 52.5q-98 0 -143 -65t-45 -206v-641h-58h-58z" />
<glyph unicode="o" horiz-adv-x="796" d="M113 292v409q0 145 74.5 223.5t211.5 78.5q138 0 212.5 -78.5t74.5 -223.5v-409q0 -150 -74.5 -231.5t-212.5 -81.5q-137 0 -211.5 81.5t-74.5 231.5zM228 292q0 -114 42 -168.5t129 -54.5q88 0 130 54.5t42 168.5v409q0 108 -42 160t-130 52q-87 0 -129 -52t-42 -160 v-409z" />
<glyph unicode="p" horiz-adv-x="796" d="M120 -367v1349h58h58v-75q75 96 206 96q121 0 186.5 -78.5t65.5 -223.5v-409q0 -150 -65.5 -231.5t-186.5 -81.5q-131 0 -206 95v-441h-58h-58zM236 373q0 -155 42 -229.5t129 -74.5t129 54.5t42 168.5v409q0 108 -42 160t-129 52t-129 -74.5t-42 -229.5v-236z" />
<glyph unicode="q" horiz-adv-x="796" d="M102 292v409q0 145 67 223.5t190 78.5q129 0 201 -95v74h116v-1349h-58h-58v441q-72 -95 -201 -95q-123 0 -190 81.5t-67 231.5zM218 292q0 -114 42 -168.5t129 -54.5t129 74.5t42 229.5v236q0 155 -42 229.5t-129 74.5t-129 -52t-42 -160v-409z" />
<glyph unicode="r" horiz-adv-x="531" d="M132 0v982h57h57v-122q16 24 34 44q75 79 220 79h10v-93l-25 2q-123 0 -180 -52.5t-57 -166.5v-673h-58h-58z" />
<glyph unicode="s" horiz-adv-x="645" d="M58 304h112q0 -125 35 -180t113 -55q75 0 111.5 43t36.5 132q0 52 -37 99t-146 135q-114 91 -158 152q-44 60 -44 126q0 124 61.5 185.5t184.5 61.5q130 0 188 -72t58 -234h-112q0 112 -34.5 164t-109.5 52q-63 0 -93.5 -35.5t-30.5 -108.5q0 -45 33 -86q32 -41 127 -117 q127 -102 176 -170q49 -67 49 -140q0 -139 -65 -208t-195 -69q-138 0 -199 76.5t-61 248.5z" />
<glyph unicode="t" horiz-adv-x="531" d="M34 899v83h152v147l116 48v-195h171v-83h-171v-585q0 -144 17 -194.5t66 -50.5q50 0 88 6v-87q-51 -9 -118 -9q-95 0 -132 53t-37 187v680h-152z" />
<glyph unicode="u" horiz-adv-x="796" d="M112 253v729h58h58v-733q0 -89 38.5 -134t114.5 -45q98 0 143 65t45 206v641h58h58v-982h-55h-55v83l-10 -12q-75 -92 -221 -92q-114 0 -173 70t-59 204z" />
<glyph unicode="v" horiz-adv-x="721" d="M27 982h60h60l211 -913l225 913h51h52l-240 -982h-89h-90z" />
<glyph unicode="w" horiz-adv-x="1252" d="M34 982h59h60l192 -913l181 913h91h91l199 -897l183 897h57h58l-212 -982h-92h-92l-191 902l-182 -902h-92h-92z" />
<glyph unicode="x" horiz-adv-x="721" d="M42 0l252 520l-235 462h64h65l181 -381l182 381h58h59l-243 -494l266 -488h-62h-63l-210 407l-197 -407h-58h-59z" />
<glyph unicode="y" horiz-adv-x="759" d="M54 982h60h61l208 -840l216 840h52h52l-356 -1341h-55h-56l92 352z" />
<glyph unicode="z" horiz-adv-x="569" d="M33 0v57v58l374 752l13 25h-387v45v45h505v-57v-58l-374 -752l-13 -25h387v-45v-45h-505z" />
<glyph unicode="{" horiz-adv-x="910" d="M202 484v116q113 27 157.5 108.5t44.5 261.5v264q0 189 64 257.5t241 68.5v-77q-125 10 -174 -45t-49 -204v-264q0 -224 -60 -320q-42 -67 -137 -107q95 -43 137 -109q60 -96 60 -320v-264q0 -149 49 -204t174 -45v-77q-177 0 -241 68.5t-64 257.5v264q0 180 -44.5 261.5 t-157.5 108.5z" />
<glyph unicode="|" horiz-adv-x="1024" d="M459 -512v2048h105v-2048h-105z" />
<glyph unicode="}" horiz-adv-x="910" d="M202 -399q124 -10 173 45t49 204v264q0 224 60 320q42 66 137 109q-95 40 -137 107q-60 96 -60 320v264q0 149 -49 204t-173 45v77q176 0 240 -68.5t64 -257.5v-264q0 -180 44.5 -261.5t157.5 -108.5v-116q-113 -27 -157.5 -108.5t-44.5 -261.5v-264q0 -189 -64 -258 q-64 -68 -240 -68v77z" />
<glyph unicode="~" horiz-adv-x="2048" d="M399 477q48 106 136.5 168t191.5 62q51 0 131.5 -20t183.5 -59q105 -40 170 -57.5t107 -17.5q74 0 136 46t95 125l97 -49q-48 -106 -136.5 -168t-191.5 -62q-51 0 -131.5 20t-183.5 59q-105 40 -170 57.5t-107 17.5q-74 0 -136 -46t-95 -125z" />
<glyph unicode="&#xa1;" horiz-adv-x="607" d="M224 870v158h160v-158h-160zM254 -389l18 1120h81l17 -1120h-116z" />
<glyph unicode="&#xa2;" d="M155 522v400q0 142 70 219q55 60 143 72v252h112v-249q99 -15 149 -71q65 -73 65 -232h-115q0 117 -36.5 168.5t-118.5 51.5q-78 0 -116 -52t-38 -160v-400q0 -108 39.5 -164.5t114.5 -56.5q82 0 118.5 51.5t36.5 168.5h115q0 -162 -64 -234q-49 -56 -150 -68v-259h-112 v258q-99 13 -150 70q-63 72 -63 235z" />
<glyph unicode="&#xa3;" d="M90 711v96h126v308q0 155 71 232t214 77q132 0 192.5 -86t60.5 -272h-113q0 138 -36 202t-114 64t-120 -49t-42 -140v-336h206v-96h-206v-622h425v-44v-45h-651v89h113v622h-126z" />
<glyph unicode="&#xa4;" d="M-71 317l137 137q-90 117 -91 274q0 159 92 275l-138 138l79 79l138 -138q117 93 274 92q157 0 274 -92l138 138l79 -79l-138 -138q93 -116 93 -275q0 -156 -92 -274l137 -137l-79 -79l-137 137q-116 -91 -275 -92q-158 0 -275 92l-137 -137zM95 728q0 -137 94 -231 t231 -94t231.5 94t94.5 231t-94.5 231.5t-231.5 94.5t-231 -94.5t-94 -231.5z" />
<glyph unicode="&#xa5;" d="M9 1410h64h65l283 -676l292 676h58h59l-314 -701h273v-100h-311v-99h311v-100h-311v-410h-58h-58v410h-311v100h311v99h-311v100h273z" />
<glyph unicode="&#xa6;" horiz-adv-x="1024" d="M459 458h105v-919h-105v919zM459 564v919h105v-919h-105z" />
<glyph unicode="&#xa7;" d="M139 717q0 112 89 180q45 35 103 51q-50 30 -81 62q-61 64 -61 160q0 125 78 193q77 68 220 68q48 0 89.5 -8t70.5 -22v-86q-21 11 -62.5 16.5t-97.5 5.5q-88 0 -135.5 -42.5t-47.5 -121.5q0 -58 43.5 -101.5t141.5 -84.5q113 -47 163.5 -102.5t50.5 -133.5 q0 -121 -74 -187q-41 -37 -102 -52q80 -39 116 -77q55 -58 55 -163q0 -143 -88 -220t-250 -77q-46 0 -93.5 5.5t-88.5 15.5v88q29 -7 76.5 -11t105.5 -4q109 0 168.5 51t59.5 146q0 62 -44 105t-143 79q-139 50 -200.5 112.5t-61.5 154.5zM249 747q0 -70 44 -117 q39 -42 122 -75h6q62 0 117 55.5t55 118.5q0 61 -33.5 100t-108.5 66l-43 16q-46 -14 -90 -50q-69 -56 -69 -114z" />
<glyph unicode="&#xa8;" d="M258 1103v142h130v-142h-130zM472 1103v142h130v-142h-130z" />
<glyph unicode="&#xa9;" horiz-adv-x="1024" d="M32 1051q0 201 138.5 339.5t338.5 138.5q201 0 339.5 -138.5t138.5 -339.5q0 -200 -138.5 -338.5t-339.5 -138.5q-200 0 -338.5 138.5t-138.5 338.5zM97 1051q0 -173 119.5 -292.5t292.5 -119.5t293 119.5t120 292.5t-120 293t-293 120t-292.5 -120t-119.5 -293z M280 1060q0 116 75.5 195.5t184.5 79.5q58 0 114.5 -22t79.5 -54l-58 -62q-19 26 -58.5 44.5t-77.5 18.5q-78 0 -131.5 -58t-53.5 -142t54.5 -141.5t133.5 -57.5q37 0 77 19.5t61 47.5l58 -62q-24 -34 -81 -57t-115 -23q-110 0 -186.5 79.5t-76.5 194.5z" />
<glyph unicode="&#xaa;" horiz-adv-x="531" d="M58 961v4q0 115 64.5 162t222.5 47h25v74q0 47 -27.5 74.5t-74.5 27.5q-53 0 -75 -22.5t-22 -77.5h-91q0 94 43.5 134t146.5 40q94 0 142.5 -42.5t48.5 -123.5v-482h-91v88l-12 -18q-51 -77 -149 -77q-68 0 -109.5 53t-41.5 139zM151 972q0 -65 23 -95t72 -30q66 0 95 52 q27 48 29 154v51h-39q-99 0 -139.5 -29t-40.5 -99v-4z" />
<glyph unicode="&#xab;" horiz-adv-x="721" d="M118 489l121 365h83l-99 -365l99 -366h-83zM395 489l121 365h83l-99 -365l99 -366h-83z" />
<glyph unicode="&#xac;" horiz-adv-x="1365" d="M309 691v89h746v-418h-89v329h-657z" />
<glyph unicode="&#xad;" horiz-adv-x="455" d="M56 470v81h342v-81h-342z" />
<glyph unicode="&#xae;" horiz-adv-x="1024" d="M32 1046q0 201 138.5 339.5t338.5 138.5q201 0 339.5 -138.5t138.5 -339.5q0 -200 -138.5 -338.5t-339.5 -138.5q-200 0 -338.5 138.5t-138.5 338.5zM97 1046q0 -173 119.5 -292.5t292.5 -119.5t293 119.5t120 292.5t-120 293t-293 120t-292.5 -120t-119.5 -293zM342 807 v506h187q62 0 104.5 -42.5t42.5 -104.5t-43 -105q-20 -20 -46 -31l89 -223h-91l-84 212h-84v-212h-75zM417 1094h112q30 0 51 21t21 51t-21 51t-51 21h-112v-72v-72z" />
<glyph unicode="&#xaf;" horiz-adv-x="1024" d="M0 1526v105h1024v-105h-1024z" />
<glyph unicode="&#xb0;" d="M138 1134q0 125 86 211t211 86t211 -86t86 -211t-86 -211t-211 -86t-211 86t-86 211zM223 1134q0 -89 61.5 -150.5t150.5 -61.5t150.5 61.5t61.5 150.5t-61.5 150.5t-150.5 61.5t-150.5 -61.5t-61.5 -150.5z" />
<glyph unicode="&#xb1;" horiz-adv-x="1365" d="M309 38v89h746v-89h-746zM309 527v88h329v329h88v-329h329v-88h-329v-329h-88v329h-329z" />
<glyph unicode="&#xb2;" horiz-adv-x="531" d="M65 663v48v49q146 151 226 279q79 127 79 211q0 46 -25 71.5t-69 25.5q-55 0 -76.5 -38t-16.5 -123h-94q-8 126 35.5 182t150.5 56q89 0 138 -47q48 -46 48 -131q0 -100 -81 -231q-73 -116 -223 -277h308v-75h-400z" />
<glyph unicode="&#xb3;" horiz-adv-x="531" d="M79 878h94q0 -87 20.5 -119.5t74.5 -32.5t75 27t21 96v59q0 51 -29 76.5t-86 25.5h-68v76h74q47 0 74.5 26t27.5 71v70q0 45 -24 69.5t-68 24.5q-52 0 -72 -32t-20 -116h-94q0 119 43.5 172t142.5 53q89 0 137.5 -45t48.5 -129v-70q0 -76 -45 -111l-23 -15q17 -8 30 -21 q45 -44 45 -139v-59q0 -97 -45.5 -141.5t-144.5 -44.5q-100 0 -144.5 54t-44.5 175z" />
<glyph unicode="&#xb4;" d="M350 1103l123 300h130l-155 -300h-98z" />
<glyph unicode="&#xb5;" horiz-adv-x="1138" d="M-125 -441l225 736l212 687h116l-200 -648q-34 -111 19 -187.5t164 -76.5t215.5 90t145.5 221l185 601h116l-302 -982h-104l59 193q-36 -53 -84 -98q-121 -116 -247 -116q-125 0 -186 87q-27 40 -36 87l-182 -594h-116z" />
<glyph unicode="&#xb6;" d="M-7 1045q0 216 161.5 348.5t425.5 132.5h260v-80h-138v-1772h-80v1772h-98v-1772h-80v892q-215 39 -333 163t-118 316z" />
<glyph unicode="&#xb7;" horiz-adv-x="455" d="M149 626v158h160v-158h-160z" />
<glyph unicode="&#xb8;" d="M272 -370l121 259h95l-93 -259h-123z" />
<glyph unicode="&#xb9;" horiz-adv-x="531" d="M112 1206v104q44 30 74 54l68 60h86v-761h-45h-46v647l-37 -32q-40 -32 -100 -72z" />
<glyph unicode="&#xba;" horiz-adv-x="531" d="M61 974v244q0 99 53.5 152.5t152.5 53.5t152.5 -53.5t53.5 -152.5v-244q0 -102 -53.5 -157t-152.5 -55t-152.5 55t-53.5 157zM153 974q0 -69 28 -102.5t86 -33.5t86 33.5t28 102.5v244q0 66 -28 98t-86 32t-86 -32t-28 -98v-244z" />
<glyph unicode="&#xbb;" horiz-adv-x="721" d="M118 123l99 365l-99 366h83l121 -366l-121 -365h-83zM394 123l99 365l-99 366h83l121 -366l-121 -365h-83z" />
<glyph unicode="&#xbc;" horiz-adv-x="1365" d="M320 -99l540 1537h95l-540 -1537h-95zM159 1206v104q44 30 74 54l68 60h86v-761h-45h-46v647l-37 -32q-40 -32 -100 -72zM756 179v36v36l240 496h56h56v-493h88v-75h-88v-179h-91v179h-261zM847 254h170v371z" />
<glyph unicode="&#xbd;" horiz-adv-x="1365" d="M299 -99l540 1537h95l-540 -1537h-95zM172 1206v104q44 30 74 54l68 60h86v-761h-45h-46v647l-37 -32q-40 -32 -100 -72zM805 0v48v49q146 151 226 279q79 127 79 211q0 46 -25 71.5t-69 25.5q-55 0 -76.5 -38t-16.5 -123h-94q-8 126 35.5 182t150.5 56q89 0 138 -47 q48 -46 48 -131q0 -100 -81 -231q-73 -116 -223 -277h308v-75h-400z" />
<glyph unicode="&#xbe;" horiz-adv-x="1365" d="M335 -99l540 1537h95l-540 -1537h-95zM135 878h94q0 -87 20.5 -119.5t74.5 -32.5t75 27t21 96v59q0 51 -29 76.5t-86 25.5h-68v76h74q47 0 74.5 26t27.5 71v70q0 45 -24 69.5t-68 24.5q-52 0 -72 -32t-20 -116h-94q0 119 43.5 172t142.5 53q89 0 137.5 -45t48.5 -129v-70 q0 -76 -45 -111l-23 -15q17 -8 30 -21q45 -44 45 -139v-59q0 -97 -45.5 -141.5t-144.5 -44.5q-100 0 -144.5 54t-44.5 175zM730 179v36v36l240 496h56h56v-493h88v-75h-88v-179h-91v179h-261zM821 254h170v371z" />
<glyph unicode="&#xbf;" d="M150 -99q0 102 34 201t111 220q50 80 64.5 127.5t14.5 134.5v121h112v-121q0 -97 -19.5 -159.5t-79.5 -160.5q-77 -127 -99 -192t-22 -171q0 -95 36 -134q35 -38 122 -38q89 0 124 59t35 210h116q0 -207 -60.5 -288t-214.5 -81q-142 0 -208 65.5t-66 206.5zM350 832v158 h160v-158h-160z" />
<glyph unicode="&#xc0;" horiz-adv-x="948" d="M44 0l366 1410h64h64l366 -1410h-60h-60l-97 394h-428l-95 -394h-60h-60zM285 494h378l-190 770zM322 1831h130l123 -300h-98z" />
<glyph unicode="&#xc1;" horiz-adv-x="948" d="M44 0l366 1410h64h64l366 -1410h-60h-60l-97 394h-428l-95 -394h-60h-60zM285 494h378l-190 770zM373 1531l123 300h130l-155 -300h-98z" />
<glyph unicode="&#xc2;" horiz-adv-x="948" d="M44 0l366 1410h64h64l366 -1410h-60h-60l-97 394h-428l-95 -394h-60h-60zM285 494h378l-190 770zM291 1531l123 284h60h60l123 -284h-91l-92 195l-92 -195h-91z" />
<glyph unicode="&#xc3;" horiz-adv-x="948" d="M44 0l366 1410h64h64l366 -1410h-60h-60l-97 394h-428l-95 -394h-60h-60zM285 494h378l-190 770zM244 1537q-2 131 17 178t74 47q26 0 59 -15t105 -61q68 -43 82 -43q17 0 22.5 24.5t3.5 89.5h97q2 -131 -17 -178t-74 -47q-26 0 -59 15t-105 61q-68 43 -82 43 q-17 0 -22.5 -24.5t-3.5 -89.5h-97z" />
<glyph unicode="&#xc4;" horiz-adv-x="948" d="M44 0l366 1410h64h64l366 -1410h-60h-60l-97 394h-428l-95 -394h-60h-60zM285 494h378l-190 770zM302 1531v142h130v-142h-130zM516 1531v142h130v-142h-130z" />
<glyph unicode="&#xc5;" horiz-adv-x="948" d="M44 0l366 1410h64h64l366 -1410h-60h-60l-97 394h-428l-95 -394h-60h-60zM285 494h378l-190 770zM286 1707q0 73 54.5 123.5t133.5 50.5t133.5 -50.5t54.5 -123.5t-54.5 -123t-133.5 -50t-133.5 50t-54.5 123zM384 1707q0 -41 26 -69.5t64 -28.5t64 28.5t26 69.5 q0 42 -26 70.5t-64 28.5t-64 -28.5t-26 -70.5z" />
<glyph unicode="&#xc6;" horiz-adv-x="1289" d="M38 0l599 1410h167h429v-50v-50h-429v-536h375v-50v-50h-375v-574h429v-50v-50h-429h-111v394h-385l-161 -394h-54h-55zM349 494h344v838z" />
<glyph unicode="&#xc7;" horiz-adv-x="872" d="M137 372v682q0 181 87.5 279t248.5 98q159 0 232 -89.5t73 -283.5h-116q0 145 -44.5 209t-144.5 64q-121 0 -170.5 -62.5t-49.5 -215.5v-682q0 -155 51.5 -223.5t168.5 -68.5q104 0 146.5 68t42.5 234h116q0 -213 -71.5 -307.5t-233.5 -94.5q-168 0 -252 98t-84 295z M305 -370l121 259h95l-93 -259h-123z" />
<glyph unicode="&#xc8;" horiz-adv-x="796" d="M153 0v1410h563v-50v-50h-447v-536h424v-50v-50h-424v-574h459v-50v-50h-575zM254 1831h130l123 -300h-98z" />
<glyph unicode="&#xc9;" horiz-adv-x="796" d="M153 0v1410h563v-50v-50h-447v-536h424v-50v-50h-424v-574h459v-50v-50h-575zM305 1531l123 300h130l-155 -300h-98z" />
<glyph unicode="&#xca;" horiz-adv-x="796" d="M153 0v1410h563v-50v-50h-447v-536h424v-50v-50h-424v-574h459v-50v-50h-575zM223 1531l123 284h60h60l123 -284h-91l-92 195l-92 -195h-91z" />
<glyph unicode="&#xcb;" horiz-adv-x="796" d="M153 0v1410h563v-50v-50h-447v-536h424v-50v-50h-424v-574h459v-50v-50h-575zM234 1531v142h130v-142h-130zM448 1531v142h130v-142h-130z" />
<glyph unicode="&#xcc;" horiz-adv-x="417" d="M154 0v1410h58h58v-1410h-58h-58zM60 1831h130l123 -300h-98z" />
<glyph unicode="&#xcd;" horiz-adv-x="417" d="M142 0v1410h58h58v-1410h-58h-58zM99 1531l123 300h130l-155 -300h-98z" />
<glyph unicode="&#xce;" horiz-adv-x="417" d="M156 0v1410h58h58v-1410h-58h-58zM31 1531l123 284h60h60l123 -284h-91l-92 195l-92 -195h-91z" />
<glyph unicode="&#xcf;" horiz-adv-x="417" d="M155 0v1410h58h58v-1410h-58h-58zM41 1531v142h130v-142h-130zM255 1531v142h130v-142h-130z" />
<glyph unicode="&#xd0;" horiz-adv-x="986" d="M29 655v100h90v655h58h235q249 0 347 -83.5t98 -296.5v-634q0 -222 -98 -309t-347 -87h-235h-58v655h-90zM235 100h177q187 0 258 63.5t71 231.5v634q0 160 -71 220.5t-258 60.5h-177v-555h228v-100h-228v-555z" />
<glyph unicode="&#xd1;" horiz-adv-x="1062" d="M141 0v1410h81h81l488 -1202v1202h60h60v-1410h-80h-80l-490 1207v-1207h-60h-60zM296 1537q-2 131 17 178t74 47q26 0 59 -15t105 -61q68 -43 82 -43q17 0 22.5 24.5t3.5 89.5h97q2 -131 -17 -178t-74 -47q-26 0 -59 15t-105 61q-68 43 -82 43q-17 0 -22.5 -24.5 t-3.5 -89.5h-97z" />
<glyph unicode="&#xd2;" horiz-adv-x="986" d="M137 372v682q0 181 92 279t262 98t262.5 -98t92.5 -279v-682q0 -189 -92.5 -291t-262.5 -102t-262 102t-92 291zM253 371q0 -149 58.5 -220.5t179.5 -71.5q122 0 180.5 71.5t58.5 220.5v682q0 142 -58.5 210t-180.5 68q-121 0 -179.5 -68t-58.5 -210v-682zM339 1831h130 l123 -300h-98z" />
<glyph unicode="&#xd3;" horiz-adv-x="986" d="M137 372v682q0 181 92 279t262 98t262.5 -98t92.5 -279v-682q0 -189 -92.5 -291t-262.5 -102t-262 102t-92 291zM253 371q0 -149 58.5 -220.5t179.5 -71.5q122 0 180.5 71.5t58.5 220.5v682q0 142 -58.5 210t-180.5 68q-121 0 -179.5 -68t-58.5 -210v-682zM390 1531 l123 300h130l-155 -300h-98z" />
<glyph unicode="&#xd4;" horiz-adv-x="986" d="M137 372v682q0 181 92 279t262 98t262.5 -98t92.5 -279v-682q0 -189 -92.5 -291t-262.5 -102t-262 102t-92 291zM253 371q0 -149 58.5 -220.5t179.5 -71.5q122 0 180.5 71.5t58.5 220.5v682q0 142 -58.5 210t-180.5 68q-121 0 -179.5 -68t-58.5 -210v-682zM308 1531 l123 284h60h60l123 -284h-91l-92 195l-92 -195h-91z" />
<glyph unicode="&#xd5;" horiz-adv-x="986" d="M137 372v682q0 181 92 279t262 98t262.5 -98t92.5 -279v-682q0 -189 -92.5 -291t-262.5 -102t-262 102t-92 291zM253 371q0 -149 58.5 -220.5t179.5 -71.5q122 0 180.5 71.5t58.5 220.5v682q0 142 -58.5 210t-180.5 68q-121 0 -179.5 -68t-58.5 -210v-682zM261 1537 q-2 131 17 178t74 47q26 0 59 -15t105 -61q68 -43 82 -43q17 0 22.5 24.5t3.5 89.5h97q2 -131 -17 -178t-74 -47q-26 0 -59 15t-105 61q-68 43 -82 43q-17 0 -22.5 -24.5t-3.5 -89.5h-97z" />
<glyph unicode="&#xd6;" horiz-adv-x="986" d="M137 372v682q0 181 92 279t262 98t262.5 -98t92.5 -279v-682q0 -189 -92.5 -291t-262.5 -102t-262 102t-92 291zM253 371q0 -149 58.5 -220.5t179.5 -71.5q122 0 180.5 71.5t58.5 220.5v682q0 142 -58.5 210t-180.5 68q-121 0 -179.5 -68t-58.5 -210v-682zM319 1531v142 h130v-142h-130zM533 1531v142h130v-142h-130z" />
<glyph unicode="&#xd7;" horiz-adv-x="1365" d="M340 293l278 278l-278 278l62 62l278 -278l278 278l62 -62l-278 -278l278 -278l-62 -62l-278 278l-278 -278z" />
<glyph unicode="&#xd8;" horiz-adv-x="986" d="M133 372v682q0 181 92 279t262 98q105 0 179 -37l47 143l82 -39l-52 -159l7 -6q92 -98 92 -279v-682q0 -189 -92.5 -291t-262.5 -102q-104 0 -179 38l-47 -144l-82 39l53 161l-7 8q-92 102 -92 291zM249 371q0 -99 26 -167l212 644l146 445q-55 38 -146 38 q-121 0 -179.5 -68t-58.5 -210v-682zM341 118q57 -39 146 -39q122 0 180.5 71.5t58.5 220.5v682q0 95 -26 156l-213 -647z" />
<glyph unicode="&#xd9;" horiz-adv-x="986" d="M144 295v1115h58h58v-1095q0 -120 58 -178t178 -58t177.5 58t57.5 178v1095h57h58v-1115q0 -152 -91 -234t-260 -82t-260 82t-91 234zM343 1831h130l123 -300h-98z" />
<glyph unicode="&#xda;" horiz-adv-x="986" d="M144 295v1115h58h58v-1095q0 -120 58 -178t178 -58t177.5 58t57.5 178v1095h57h58v-1115q0 -152 -91 -234t-260 -82t-260 82t-91 234zM394 1531l123 300h130l-155 -300h-98z" />
<glyph unicode="&#xdb;" horiz-adv-x="986" d="M144 295v1115h58h58v-1095q0 -120 58 -178t178 -58t177.5 58t57.5 178v1095h57h58v-1115q0 -152 -91 -234t-260 -82t-260 82t-91 234zM312 1531l123 284h60h60l123 -284h-91l-92 195l-92 -195h-91z" />
<glyph unicode="&#xdc;" horiz-adv-x="986" d="M144 295v1115h58h58v-1095q0 -120 58 -178t178 -58t177.5 58t57.5 178v1095h57h58v-1115q0 -152 -91 -234t-260 -82t-260 82t-91 234zM323 1531v142h130v-142h-130zM537 1531v142h130v-142h-130z" />
<glyph unicode="&#xdd;" horiz-adv-x="910" d="M55 1410h64h64l281 -678l291 678h58h59l-350 -788v-622h-58h-58v625zM362 1531l123 300h130l-155 -300h-98z" />
<glyph unicode="&#xde;" horiz-adv-x="872" d="M155 0v1410h58h58v-303h215q193 0 262.5 -80.5t69.5 -302.5q0 -227 -69.5 -309.5t-262.5 -82.5h-215v-332h-58h-58zM271 432h172q158 0 209 57q50 56 50 233q0 174 -50.5 229.5t-208.5 55.5h-172v-575z" />
<glyph unicode="&#xdf;" horiz-adv-x="872" d="M114 0v1071q0 173 75.5 263t221.5 90q138 0 213 -64t75 -183q0 -64 -22 -110.5t-84 -115.5q-53 -58 -71.5 -91t-18.5 -69q0 -35 31 -75.5t115 -114.5q107 -94 147 -168.5t40 -178.5q0 -132 -74.5 -203.5t-211.5 -71.5q-119 0 -179.5 70.5t-54.5 200.5h111 q-4 -87 32.5 -134t108.5 -47q73 0 113 45t40 128q0 84 -31 142.5t-115 132.5q-107 94 -147 151t-40 115q0 50 18 87.5t68 92.5q64 71 87 116.5t23 102.5q0 73 -44 112.5t-125 39.5q-92 0 -138.5 -57t-46.5 -171v-35v-1071h-58h-58z" />
<glyph unicode="&#xe0;" horiz-adv-x="759" d="M66 273v17q0 163 94.5 230t326.5 67h37v143q0 84 -44 133.5t-118 49.5q-90 0 -126.5 -48t-36.5 -166h-116q0 164 64 234t214 70q137 0 208 -65.5t71 -191.5v-746h-116v75q-73 -96 -212 -96q-125 0 -185.5 72t-60.5 222zM182 273q0 -104 39 -154t121 -50q96 0 138.5 66 t43.5 209v153h-62q-154 0 -217 -46.5t-63 -160.5v-17zM218 1403h130l123 -300h-98z" />
<glyph unicode="&#xe1;" horiz-adv-x="759" d="M66 273v17q0 163 94.5 230t326.5 67h37v143q0 84 -44 133.5t-118 49.5q-90 0 -126.5 -48t-36.5 -166h-116q0 164 64 234t214 70q137 0 208 -65.5t71 -191.5v-746h-116v75q-73 -96 -212 -96q-125 0 -185.5 72t-60.5 222zM182 273q0 -104 39 -154t121 -50q96 0 138.5 66 t43.5 209v153h-62q-154 0 -217 -46.5t-63 -160.5v-17zM269 1103l123 300h130l-155 -300h-98z" />
<glyph unicode="&#xe2;" horiz-adv-x="759" d="M66 273v17q0 163 94.5 230t326.5 67h37v143q0 84 -44 133.5t-118 49.5q-90 0 -126.5 -48t-36.5 -166h-116q0 164 64 234t214 70q137 0 208 -65.5t71 -191.5v-746h-116v75q-73 -96 -212 -96q-125 0 -185.5 72t-60.5 222zM182 273q0 -104 39 -154t121 -50q96 0 138.5 66 t43.5 209v153h-62q-154 0 -217 -46.5t-63 -160.5v-17zM187 1103l123 284h60h60l123 -284h-91l-92 195l-92 -195h-91z" />
<glyph unicode="&#xe3;" horiz-adv-x="759" d="M66 273v17q0 163 94.5 230t326.5 67h37v143q0 84 -44 133.5t-118 49.5q-90 0 -126.5 -48t-36.5 -166h-116q0 164 64 234t214 70q137 0 208 -65.5t71 -191.5v-746h-116v75q-73 -96 -212 -96q-125 0 -185.5 72t-60.5 222zM182 273q0 -104 39 -154t121 -50q96 0 138.5 66 t43.5 209v153h-62q-154 0 -217 -46.5t-63 -160.5v-17zM140 1109q-2 131 17 178t74 47q26 0 59 -15t105 -61q68 -43 82 -43q17 0 22.5 24.5t3.5 89.5h97q2 -131 -17 -178t-74 -47q-26 0 -59 15t-105 61q-68 43 -82 43q-17 0 -22.5 -24.5t-3.5 -89.5h-97z" />
<glyph unicode="&#xe4;" horiz-adv-x="759" d="M66 273v17q0 163 94.5 230t326.5 67h37v143q0 84 -44 133.5t-118 49.5q-90 0 -126.5 -48t-36.5 -166h-116q0 164 64 234t214 70q137 0 208 -65.5t71 -191.5v-746h-116v75q-73 -96 -212 -96q-125 0 -185.5 72t-60.5 222zM182 273q0 -104 39 -154t121 -50q96 0 138.5 66 t43.5 209v153h-62q-154 0 -217 -46.5t-63 -160.5v-17zM198 1103v142h130v-142h-130zM412 1103v142h130v-142h-130z" />
<glyph unicode="&#xe5;" horiz-adv-x="759" d="M66 273v17q0 163 94.5 230t326.5 67h37v143q0 84 -44 133.5t-118 49.5q-90 0 -126.5 -48t-36.5 -166h-116q0 164 64 234t214 70q137 0 208 -65.5t71 -191.5v-746h-116v75q-73 -96 -212 -96q-125 0 -185.5 72t-60.5 222zM182 273q0 -104 39 -154t121 -50q96 0 138.5 66 t43.5 209v153h-62q-154 0 -217 -46.5t-63 -160.5v-17zM182 1279q0 73 54.5 123.5t133.5 50.5t133.5 -50.5t54.5 -123.5t-54.5 -123t-133.5 -50t-133.5 50t-54.5 123zM280 1279q0 -41 26 -69.5t64 -28.5t64 28.5t26 69.5q0 42 -26 70.5t-64 28.5t-64 -28.5t-26 -70.5z" />
<glyph unicode="&#xe6;" horiz-adv-x="1176" d="M74 273v17q0 163 94.5 230t326.5 67h37v143q0 84 -44 133.5t-118 49.5q-90 0 -126.5 -48t-36.5 -166h-116q0 164 64 234t214 70q137 0 208 -66l21 -22l8 10q74 78 212 78t212.5 -78.5t74.5 -223.5v-246h-459v-163q0 -114 42 -168.5t129 -54.5q93 0 133 52t40 174h115 q0 -167 -67.5 -241.5t-219.5 -74.5q-138 0 -213 82q-25 28 -41 62q-12 -24 -29 -46q-76 -98 -215 -98q-125 0 -185.5 72t-60.5 222zM190 273q0 -104 39 -154t121 -50q96 0 138 66t44 209v153h-62q-154 0 -217 -46.5t-63 -160.5v-17zM646 545h344v156q0 108 -42 160t-130 52 t-130 -52t-42 -160v-156z" />
<glyph unicode="&#xe7;" horiz-adv-x="683" d="M79 292v409q0 145 68.5 223.5t194.5 78.5q137 0 200.5 -73.5t63.5 -232.5h-115q0 114 -35 165t-114 51q-75 0 -111.5 -52t-36.5 -160v-409q0 -109 38 -166t110 -57q82 0 115.5 53t33.5 182h115q0 -172 -62 -248.5t-202 -76.5q-132 0 -197.5 78t-65.5 235zM174 -370 l121 259h95l-93 -259h-123z" />
<glyph unicode="&#xe8;" horiz-adv-x="759" d="M95 292v409q0 145 74.5 223.5t212.5 78.5t212.5 -78.5t74.5 -223.5v-246h-459v-163q0 -114 42 -168.5t129 -54.5q93 0 133 52t40 174h115q0 -167 -67.5 -241.5t-219.5 -74.5q-138 0 -212.5 81.5t-74.5 231.5zM210 545h344v156q0 108 -42 160t-130 52t-130 -52t-42 -160 v-156zM241 1403h130l123 -300h-98z" />
<glyph unicode="&#xe9;" horiz-adv-x="759" d="M95 292v409q0 145 74.5 223.5t212.5 78.5t212.5 -78.5t74.5 -223.5v-246h-459v-163q0 -114 42 -168.5t129 -54.5q93 0 133 52t40 174h115q0 -167 -67.5 -241.5t-219.5 -74.5q-138 0 -212.5 81.5t-74.5 231.5zM210 545h344v156q0 108 -42 160t-130 52t-130 -52t-42 -160 v-156zM292 1103l123 300h130l-155 -300h-98z" />
<glyph unicode="&#xea;" horiz-adv-x="759" d="M95 292v409q0 145 74.5 223.5t212.5 78.5t212.5 -78.5t74.5 -223.5v-246h-459v-163q0 -114 42 -168.5t129 -54.5q93 0 133 52t40 174h115q0 -167 -67.5 -241.5t-219.5 -74.5q-138 0 -212.5 81.5t-74.5 231.5zM210 545h344v156q0 108 -42 160t-130 52t-130 -52t-42 -160 v-156zM210 1103l123 284h60h60l123 -284h-91l-92 195l-92 -195h-91z" />
<glyph unicode="&#xeb;" horiz-adv-x="759" d="M95 292v409q0 145 74.5 223.5t212.5 78.5t212.5 -78.5t74.5 -223.5v-246h-459v-163q0 -114 42 -168.5t129 -54.5q93 0 133 52t40 174h115q0 -167 -67.5 -241.5t-219.5 -74.5q-138 0 -212.5 81.5t-74.5 231.5zM210 545h344v156q0 108 -42 160t-130 52t-130 -52t-42 -160 v-156zM221 1103v142h130v-142h-130zM435 1103v142h130v-142h-130z" />
<glyph unicode="&#xec;" horiz-adv-x="341" d="M114 0v982h58h58v-982h-58h-58zM20 1403h130l123 -300h-98z" />
<glyph unicode="&#xed;" horiz-adv-x="341" d="M113 0v982h58h58v-982h-58h-58zM70 1103l123 300h130l-155 -300h-98z" />
<glyph unicode="&#xee;" horiz-adv-x="341" d="M118 0v982h58h58v-982h-58h-58zM-7 1103l123 284h60h60l123 -284h-91l-92 195l-92 -195h-91z" />
<glyph unicode="&#xef;" horiz-adv-x="341" d="M126 0v982h58h58v-982h-58h-58zM12 1103v142h130v-142h-130zM226 1103v142h130v-142h-130z" />
<glyph unicode="&#xf0;" horiz-adv-x="796" d="M109 292v408q0 145 74.5 223t212.5 78q84 0 156 -55q-23 70 -52 134q-42 92 -97 160l-186 -91l-32 71l165 81q-70 68 -154 109h171q39 -31 73 -65l160 79l32 -71l-138 -68q71 -88 114 -193q75 -183 75 -450v-7v-282q0 -187 -71.5 -280.5t-215.5 -93.5q-138 0 -212.5 81.5 t-74.5 231.5zM224 291q0 -113 42 -167.5t130 -54.5t130 54.5t42 167.5v408q0 108 -42 160t-130 52t-130 -52t-42 -160v-408z" />
<glyph unicode="&#xf1;" horiz-adv-x="796" d="M112 0v982h55h55v-80l7 9q73 92 213 92q119 0 181 -73t62 -214v-716h-58h-58v713q0 94 -40.5 146.5t-112.5 52.5q-98 0 -143 -65t-45 -206v-641h-58h-58zM168 1109q-2 131 17 178t74 47q26 0 59 -15t105 -61q68 -43 82 -43q17 0 22.5 24.5t3.5 89.5h97q2 -131 -17 -178 t-74 -47q-26 0 -59 15t-105 61q-68 43 -82 43q-17 0 -22.5 -24.5t-3.5 -89.5h-97z" />
<glyph unicode="&#xf2;" horiz-adv-x="796" d="M113 292v409q0 145 74.5 223.5t211.5 78.5q138 0 212.5 -78.5t74.5 -223.5v-409q0 -150 -74.5 -231.5t-212.5 -81.5q-137 0 -211.5 81.5t-74.5 231.5zM228 292q0 -114 42 -168.5t129 -54.5q88 0 130 54.5t42 168.5v409q0 108 -42 160t-130 52q-87 0 -129 -52t-42 -160 v-409zM247 1403h130l123 -300h-98z" />
<glyph unicode="&#xf3;" horiz-adv-x="796" d="M113 292v409q0 145 74.5 223.5t211.5 78.5q138 0 212.5 -78.5t74.5 -223.5v-409q0 -150 -74.5 -231.5t-212.5 -81.5q-137 0 -211.5 81.5t-74.5 231.5zM228 292q0 -114 42 -168.5t129 -54.5q88 0 130 54.5t42 168.5v409q0 108 -42 160t-130 52q-87 0 -129 -52t-42 -160 v-409zM298 1103l123 300h130l-155 -300h-98z" />
<glyph unicode="&#xf4;" horiz-adv-x="796" d="M113 292v409q0 145 74.5 223.5t211.5 78.5q138 0 212.5 -78.5t74.5 -223.5v-409q0 -150 -74.5 -231.5t-212.5 -81.5q-137 0 -211.5 81.5t-74.5 231.5zM228 292q0 -114 42 -168.5t129 -54.5q88 0 130 54.5t42 168.5v409q0 108 -42 160t-130 52q-87 0 -129 -52t-42 -160 v-409zM216 1103l123 284h60h60l123 -284h-91l-92 195l-92 -195h-91z" />
<glyph unicode="&#xf5;" horiz-adv-x="796" d="M113 292v409q0 145 74.5 223.5t211.5 78.5q138 0 212.5 -78.5t74.5 -223.5v-409q0 -150 -74.5 -231.5t-212.5 -81.5q-137 0 -211.5 81.5t-74.5 231.5zM228 292q0 -114 42 -168.5t129 -54.5q88 0 130 54.5t42 168.5v409q0 108 -42 160t-130 52q-87 0 -129 -52t-42 -160 v-409zM169 1109q-2 131 17 178t74 47q26 0 59 -15t105 -61q68 -43 82 -43q17 0 22.5 24.5t3.5 89.5h97q2 -131 -17 -178t-74 -47q-26 0 -59 15t-105 61q-68 43 -82 43q-17 0 -22.5 -24.5t-3.5 -89.5h-97z" />
<glyph unicode="&#xf6;" horiz-adv-x="796" d="M113 292v409q0 145 74.5 223.5t211.5 78.5q138 0 212.5 -78.5t74.5 -223.5v-409q0 -150 -74.5 -231.5t-212.5 -81.5q-137 0 -211.5 81.5t-74.5 231.5zM228 292q0 -114 42 -168.5t129 -54.5q88 0 130 54.5t42 168.5v409q0 108 -42 160t-130 52q-87 0 -129 -52t-42 -160 v-409zM227 1103v142h130v-142h-130zM441 1103v142h130v-142h-130z" />
<glyph unicode="&#xf7;" horiz-adv-x="1365" d="M306 527v89h752v-89h-752zM602 361q0 34 23 57t57 23t57 -23t23 -57t-23 -57t-57 -23t-57 23t-23 57zM602 782q0 34 23 57t57 23t57 -23t23 -57t-23 -57t-57 -23t-57 23t-23 57z" />
<glyph unicode="&#xf8;" horiz-adv-x="796" d="M107 292v409q0 145 74.5 223.5t211.5 78.5q61 0 110 -16l42 142l66 -29l-43 -143l38 -33q74 -78 74 -223v-409q0 -150 -74.5 -231.5t-212.5 -81.5q-60 1 -110 15l-42 -141l-66 29l43 146q-20 14 -37 33q-74 81 -74 231zM222 292q1 -96 29 -152l142 477l83 280 q-34 16 -83 16q-87 0 -129 -52t-42 -160v-409zM310 85q34 -15 83 -16q88 0 130 54.5t42 168.5v409q0 91 -30 143l-142 -479z" />
<glyph unicode="&#xf9;" horiz-adv-x="796" d="M112 253v729h58h58v-733q0 -89 38.5 -134t114.5 -45q98 0 143 65t45 206v641h58h58v-982h-55h-55v83l-10 -12q-75 -92 -221 -92q-114 0 -173 70t-59 204zM246 1403h130l123 -300h-98z" />
<glyph unicode="&#xfa;" horiz-adv-x="796" d="M112 253v729h58h58v-733q0 -89 38.5 -134t114.5 -45q98 0 143 65t45 206v641h58h58v-982h-55h-55v83l-10 -12q-75 -92 -221 -92q-114 0 -173 70t-59 204zM297 1103l123 300h130l-155 -300h-98z" />
<glyph unicode="&#xfb;" horiz-adv-x="796" d="M112 253v729h58h58v-733q0 -89 38.5 -134t114.5 -45q98 0 143 65t45 206v641h58h58v-982h-55h-55v83l-10 -12q-75 -92 -221 -92q-114 0 -173 70t-59 204zM215 1103l123 284h60h60l123 -284h-91l-92 195l-92 -195h-91z" />
<glyph unicode="&#xfc;" horiz-adv-x="796" d="M112 253v729h58h58v-733q0 -89 38.5 -134t114.5 -45q98 0 143 65t45 206v641h58h58v-982h-55h-55v83l-10 -12q-75 -92 -221 -92q-114 0 -173 70t-59 204zM226 1103v142h130v-142h-130zM440 1103v142h130v-142h-130z" />
<glyph unicode="&#xfd;" horiz-adv-x="759" d="M54 982h60h61l208 -840l216 840h52h52l-356 -1341h-55h-56l92 352zM277 1103l123 300h130l-155 -300h-98z" />
<glyph unicode="&#xfe;" horiz-adv-x="796" d="M120 -367v1777h58h58v-503q75 96 206 96q121 0 186.5 -78.5t65.5 -223.5v-409q0 -150 -65.5 -231.5t-186.5 -81.5q-131 0 -206 95v-441h-58h-58zM236 373q0 -155 42 -229.5t129 -74.5t129 54.5t42 168.5v409q0 108 -42 160t-129 52t-129 -74.5t-42 -229.5v-236z" />
<glyph unicode="&#xff;" horiz-adv-x="759" d="M54 982h60h61l208 -840l216 840h52h52l-356 -1341h-55h-56l92 352zM206 1103v142h130v-142h-130zM420 1103v142h130v-142h-130z" />
<glyph unicode="&#x131;" horiz-adv-x="341" d="M116 0v982h58h58v-982h-58h-58z" />
<glyph unicode="&#x152;" horiz-adv-x="1289" d="M131 372v682q0 181 86 279t244 98q134 1 215 -70v49h111h429v-50v-50h-429v-536h375v-50v-50h-375v-574h429v-50v-50h-429h-111v51q-81 -72 -215 -72q-158 0 -244 102t-86 291zM247 371q0 -149 52.5 -220.5t161.5 -71.5q110 0 162.5 71.5t52.5 220.5v682q0 142 -53 210 q-52 68 -162 68q-109 0 -161.5 -68t-52.5 -210v-682z" />
<glyph unicode="&#x153;" horiz-adv-x="1252" d="M117 292v409q0 145 75 224q74 78 211 78t212 -79l16 -18l18 19q74 78 212 78t212.5 -78.5t74.5 -223.5v-246h-459v-163q0 -114 42 -168.5t129 -54.5q93 0 133 52t40 174h115q0 -167 -67.5 -241.5t-219.5 -74.5q-138 0 -213 82l-17 21l-17 -22q-74 -81 -211 -81 t-211.5 81.5t-74.5 231.5zM232 292q0 -114 42 -168.5t129 -54.5t129 54.5t42 168.5v409q0 108 -42 160t-129 52t-129 -52t-42 -160v-409zM689 545h344v156q0 108 -42 160t-130 52t-130 -52t-42 -160v-156z" />
<glyph unicode="&#x178;" horiz-adv-x="910" d="M55 1410h64h64l281 -678l291 678h58h59l-350 -788v-622h-58h-58v625zM291 1531v142h130v-142h-130zM505 1531v142h130v-142h-130z" />
<glyph unicode="&#x2c6;" d="M243 1103l123 284h60h60l123 -284h-91l-92 195l-92 -195h-91z" />
<glyph unicode="&#x2dc;" d="M195 1109q-2 131 17 178t74 47q26 0 59 -15t105 -61q68 -43 82 -43q17 0 22.5 24.5t3.5 89.5h97q2 -131 -17 -178t-74 -47q-26 0 -59 15t-105 61q-68 43 -82 43q-17 0 -22.5 -24.5t-3.5 -89.5h-97z" />
<glyph unicode="&#x2000;" horiz-adv-x="940" />
<glyph unicode="&#x2001;" horiz-adv-x="1881" />
<glyph unicode="&#x2002;" horiz-adv-x="940" />
<glyph unicode="&#x2003;" horiz-adv-x="1881" />
<glyph unicode="&#x2004;" horiz-adv-x="627" />
<glyph unicode="&#x2005;" horiz-adv-x="470" />
<glyph unicode="&#x2006;" horiz-adv-x="313" />
<glyph unicode="&#x2007;" horiz-adv-x="313" />
<glyph unicode="&#x2008;" horiz-adv-x="235" />
<glyph unicode="&#x2009;" horiz-adv-x="376" />
<glyph unicode="&#x200a;" horiz-adv-x="104" />
<glyph unicode="&#x2010;" horiz-adv-x="455" d="M56 470v81h342v-81h-342z" />
<glyph unicode="&#x2011;" horiz-adv-x="455" d="M56 470v81h342v-81h-342z" />
<glyph unicode="&#x2012;" horiz-adv-x="455" d="M56 470v81h342v-81h-342z" />
<glyph unicode="&#x2013;" d="M83 475v72h672v-72h-672z" />
<glyph unicode="&#x2014;" horiz-adv-x="1365" d="M85 475v72h1198v-72h-1198z" />
<glyph unicode="&#x2018;" horiz-adv-x="341" d="M51 983l147 427h93l-96 -427h-144z" />
<glyph unicode="&#x2019;" horiz-adv-x="341" d="M56 983l96 427h144l-147 -427h-93z" />
<glyph unicode="&#x201a;" horiz-adv-x="341" d="M56 -158l96 426h144l-147 -426h-93z" />
<glyph unicode="&#x201c;" horiz-adv-x="569" d="M52 983l147 427h93l-96 -427h-144zM298 983l147 427h93l-96 -427h-144z" />
<glyph unicode="&#x201d;" horiz-adv-x="569" d="M56 983l96 427h144l-147 -427h-93zM295 983l96 427h144l-147 -427h-93z" />
<glyph unicode="&#x201e;" horiz-adv-x="569" d="M56 -158l96 427h144l-147 -427h-93zM295 -158l96 427h144l-147 -427h-93z" />
<glyph unicode="&#x2022;" horiz-adv-x="1479" d="M229 733q0 155 107.5 262.5t262.5 107.5t262.5 -107.5t107.5 -262.5t-107.5 -262.5t-262.5 -107.5t-262.5 107.5t-107.5 262.5z" />
<glyph unicode="&#x2026;" horiz-adv-x="1365" d="M161 0v158h160v-158h-160zM598 0v158h160v-158h-160zM1036 0v158h160v-158h-160z" />
<glyph unicode="&#x202f;" horiz-adv-x="376" />
<glyph unicode="&#x2039;" horiz-adv-x="417" d="M120 489l121 365h83l-99 -365l99 -366h-83z" />
<glyph unicode="&#x203a;" horiz-adv-x="417" d="M120 123l99 365l-99 366h83l121 -366l-121 -365h-83z" />
<glyph unicode="&#x205f;" horiz-adv-x="470" />
<glyph unicode="&#x2074;" horiz-adv-x="531" d="M65 842v36v36l240 496h56h56v-493h88v-75h-88v-179h-91v179h-261zM156 917h170v371z" />
<glyph unicode="&#x2122;" horiz-adv-x="1252" d="M123 1299v89h393v-89h-152v-518h-89v518h-152zM579 781v607h160l112 -486l112 486h160v-607h-89v559l-129 -559h-108l-129 559v-559h-89z" />
<glyph unicode="&#x2215;" horiz-adv-x="228" d="M-215 -99l540 1537h95l-540 -1537h-95z" />
<glyph unicode="&#xe000;" horiz-adv-x="980" d="M0 980h980v-980h-980v980z" />
<glyph unicode="&#xfb01;" d="M602 1269v141h128v-141h-128zM608 0v982h58h58v-982h-58h-58zM33 897v85h155v238q0 114 45 159t159 45l68 -3v-91q-26 5 -56 4q-59 0 -79.5 -23.5t-20.5 -90.5v-238h156v-85h-156v-897h-58h-58v897h-155z" />
<glyph unicode="&#xfb02;" d="M611 0v1410h58h58v-1410h-58h-58zM33 897v85h155v238q0 114 45 159t159 45l68 -3v-91q-26 5 -56 4q-59 0 -79.5 -23.5t-20.5 -90.5v-238h156v-85h-156v-897h-58h-58v897h-155z" />
<glyph unicode="&#xfb03;" horiz-adv-x="1327" d="M1095 1269v141h128v-141h-128zM1101 0v982h58h58v-982h-58h-58zM526 897v85h155v238q0 114 45 159t159 45l68 -3v-91q-26 5 -56 4q-59 0 -79.5 -23.5t-20.5 -90.5v-238h156v-85h-156v-897h-58h-58v897h-155zM33 897v85h155v238q0 114 45 159t159 45l68 -3v-91 q-26 5 -56 4q-59 0 -79.5 -23.5t-20.5 -90.5v-238h156v-85h-156v-897h-58h-58v897h-155z" />
<glyph unicode="&#xfb04;" horiz-adv-x="1327" d="M1104 0v1410h58h58v-1410h-58h-58zM526 897v85h155v238q0 114 45 159t159 45l68 -3v-91q-26 5 -56 4q-59 0 -79.5 -23.5t-20.5 -90.5v-238h156v-85h-156v-897h-58h-58v897h-155zM33 897v85h155v238q0 114 45 159t159 45l68 -3v-91q-26 5 -56 4q-59 0 -79.5 -23.5 t-20.5 -90.5v-238h156v-85h-156v-897h-58h-58v897h-155z" />
<glyph horiz-adv-x="0" d="M-478 1051q0 201 138.5 339.5t338.5 138.5q201 0 339.5 -138.5t138.5 -339.5q0 -200 -138.5 -338.5t-339.5 -138.5q-200 0 -338.5 138.5t-138.5 338.5zM-413 1051q0 -173 119.5 -292.5t292.5 -119.5t293 119.5t120 292.5t-120 293t-293 120t-292.5 -120t-119.5 -293z" />
<glyph horiz-adv-x="0" d="M-244 1060q0 116 75.5 195.5t184.5 79.5q58 0 114.5 -22t79.5 -54l-58 -62q-19 26 -58.5 44.5t-77.5 18.5q-78 0 -131.5 -58t-53.5 -142t54.5 -141.5t133.5 -57.5q37 0 77 19.5t61 47.5l58 -62q-24 -34 -81 -57t-115 -23q-110 0 -186.5 79.5t-76.5 194.5z" />
<glyph horiz-adv-x="0" d="M-478 1046q0 201 138.5 339.5t338.5 138.5q201 0 339.5 -138.5t138.5 -339.5q0 -200 -138.5 -338.5t-339.5 -138.5q-200 0 -338.5 138.5t-138.5 338.5zM-413 1046q0 -173 119.5 -292.5t292.5 -119.5t293 119.5t120 292.5t-120 293t-293 120t-292.5 -120t-119.5 -293z" />
<glyph horiz-adv-x="0" d="M-160 807v506h187q62 0 104.5 -42.5t42.5 -104.5t-43 -105q-20 -20 -46 -31l89 -223h-91l-84 212h-84v-212h-75zM-85 1094h112q30 0 51 21t21 51t-21 51t-51 21h-112v-72v-72z" />
<glyph horiz-adv-x="0" d="M-152 300h130l123 -300h-98z" />
<glyph horiz-adv-x="0" d="M-101 0l123 300h130l-155 -300h-98z" />
<glyph horiz-adv-x="0" d="M-183 0l123 284h60h60l123 -284h-91l-92 195l-92 -195h-91z" />
<glyph horiz-adv-x="0" d="M-230 6q-2 131 17 178t74 47q26 0 59 -15t105 -61q68 -43 82 -43q17 0 22.5 24.5t3.5 89.5h97q2 -131 -17 -178t-74 -47q-26 0 -59 15t-105 61q-68 43 -82 43q-17 0 -22.5 -24.5t-3.5 -89.5h-97z" />
<glyph horiz-adv-x="0" d="M-172 0v142h130v-142h-130zM42 0v142h130v-142h-130z" />
<glyph horiz-adv-x="0" d="M-188 176q0 73 54.5 123.5t133.5 50.5t133.5 -50.5t54.5 -123.5t-54.5 -123t-133.5 -50t-133.5 50t-54.5 123zM-90 176q0 -41 26 -69.5t64 -28.5t64 28.5t26 69.5q0 42 -26 70.5t-64 28.5t-64 -28.5t-26 -70.5z" />
<glyph horiz-adv-x="0" d="M-168 -370l121 259h95l-93 -259h-123z" />
<glyph horiz-adv-x="0" d="M-152 300h130l123 -300h-98z" />
<glyph horiz-adv-x="0" d="M-101 0l123 300h130l-155 -300h-98z" />
<glyph horiz-adv-x="0" d="M-183 0l123 284h60h60l123 -284h-91l-92 195l-92 -195h-91z" />
<glyph horiz-adv-x="0" d="M-230 6q-2 131 17 178t74 47q26 0 59 -15t105 -61q68 -43 82 -43q17 0 22.5 24.5t3.5 89.5h97q2 -131 -17 -178t-74 -47q-26 0 -59 15t-105 61q-68 43 -82 43q-17 0 -22.5 -24.5t-3.5 -89.5h-97z" />
<glyph horiz-adv-x="0" d="M-172 0v142h130v-142h-130zM42 0v142h130v-142h-130z" />
<glyph horiz-adv-x="0" d="M-188 176q0 73 54.5 123.5t133.5 50.5t133.5 -50.5t54.5 -123.5t-54.5 -123t-133.5 -50t-133.5 50t-54.5 123zM-90 176q0 -41 26 -69.5t64 -28.5t64 28.5t26 69.5q0 42 -26 70.5t-64 28.5t-64 -28.5t-26 -70.5z" />
<glyph horiz-adv-x="0" d="M-168 -370l121 259h95l-93 -259h-123z" />
<glyph horiz-adv-x="0" d="M0 1299v89h393v-89h-152v-518h-89v518h-152z" />
<glyph horiz-adv-x="0" d="M0 781v607h160l112 -486l112 486h160v-607h-89v559l-129 -559h-108l-129 559v-559h-89z" />
</font>
</defs>
</svg>
